<svg width="24" height="24" viewBox="0 0 24 24" fill="none" xmlns="http://www.w3.org/2000/svg">
<path d="M19.66 3.98992C17.02 2.18992 13.76 3.02992 12 5.08992C10.24 3.02992 6.98 2.17992 4.34 3.98992C2.94 4.94992 2.06 6.56992 2 8.27992C1.86 12.1599 5.3 15.2699 10.55 20.0399L10.65 20.1299C11.41 20.8199 12.58 20.8199 13.34 20.1199L13.45 20.0199C18.7 15.2599 22.13 12.1499 22 8.26992C21.94 6.56992 21.06 4.94992 19.66 3.98992ZM12.1 18.5499L12 18.6499L11.9 18.5499C7.14 14.2399 4 11.3899 4 8.49992C4 6.49992 5.5 4.99992 7.5 4.99992C9.04 4.99992 10.54 5.98992 11.07 7.35992H12.94C13.46 5.98992 14.96 4.99992 16.5 4.99992C18.5 4.99992 20 6.49992 20 8.49992C20 11.3899 16.86 14.2399 12.1 18.5499Z" fill="white" fill-opacity="0.8"/>
</svg>
